<?xml version="1.0" encoding="utf-8"?>
<!-- Generator: Adobe Illustrator 24.0.2, SVG Export Plug-In . SVG Version: 6.00 Build 0)  -->
<svg version="1.1" id="Calque_1" xmlns="http://www.w3.org/2000/svg" xmlns:xlink="http://www.w3.org/1999/xlink" x="0px" y="0px"
	 viewBox="0 0 1065 1280" style="enable-background:new 0 0 1065 1280;" xml:space="preserve">
<g transform="translate(0.000000,1280.000000) scale(0.100000,-0.100000)">
	<path d="M-1587.7,11914.2c0-11.4-5.3-12.3-43.9-7.9c-29.4,3.5-37.3,3.1-41.3-1.8c-3.1-4-17.6-7-40-8.3c-38.2-2.2-79-14.5-134.8-40
		c-18.4-8.8-43.9-18-57.1-20.6c-26.8-5.7-58.8-22-72-36.4c-5.3-5.7-13.2-11.9-18-13.2s-18-11.9-29.4-22.8
		c-16.7-15.8-23.3-19.3-31.6-17.6c-7.5,2.2-10.5,0.9-10.5-3.1c0-10.1-17.6-29.4-26.8-29.4c-4.4,0-8.3-2.2-8.3-5.3
		c0-5.3-39.1-46.5-99.2-104.9c-19.3-18.9-37.8-39.1-41.3-45.2c-3.1-6.1-9.2-12.3-13.6-13.6c-4-1.3-13.2-13.6-19.8-26.8
		c-7-13.6-17.1-29-22.4-34.2c-5.3-4.8-10.1-11.4-10.1-14.1s-4-8.3-8.8-12.7c-4.8-4.4-14.9-18.9-22.4-32.5
		c-7.5-13.6-20.6-33.8-28.5-44.8c-8.3-11.4-14.9-24.6-14.9-29.9c0-11.9-16.2-44.3-22-44.3c-2.6,0-4.4-3.5-4.4-8.3
		c0-4.4-6.6-18-14.5-29.4c-8.3-11.9-14.1-23.7-13.2-26.8c3.5-10.5-37.3-149.7-53.1-180.9c-13.2-25.9-13.6-26.8-4.8-26.8
		c4,0,7.9-2.6,9.2-6.1c2.6-7-7.5-39.5-18.9-61c-7.9-14.9-8.8-21.1-12.7-115.9c-2.2-54.9-1.8-62.8,4.4-62.8c3.5,0,9.7-6.6,13.6-14.5
		c4-8.3,13.6-21.5,22-29.4c17.1-16.7,18.9-24.2,8.3-38.6c-3.5-5.3-4.8-9.7-2.2-9.7c2.2,0,5.7,4,7,8.8c3.5,11,22.4,11.9,28.1,0.9
		c2.2-4,5.7-15.4,7.5-25s8.8-29.9,15.8-45.2c9.7-20.6,12.3-30.7,10.1-41.3c-4.8-20.6-24.2-36.9-49.2-40.8
		c-11.9-1.8-24.6-6.6-29-11.4c-10.1-11-11-10.5-35.1,4.8c-19.3,11.9-20.6,14.1-15.8,23.3c2.6,5.3,11,16.2,18.4,24.2
		c7.5,7.5,11.4,14.1,8.8,14.1c-9.7,0-44.3-46.1-49.6-65.9c-2.6-11-8.8-25.5-13.2-32.9c-8.8-14.9-7.5-42.2,3.1-57.5
		c3.1-5.3,5.7-11.4,5.3-13.2c-2.6-15.4,18.4-40,51.8-61.5c12.7-8.3,25-19.3,27.2-25s18-24.2,35.1-41.3s31.2-33.4,31.2-36.9
		c0-9.2-13.6-21.1-20.6-18.4c-4.8,1.8-6.1,0.9-4.8-3.5c1.3-3.5,4.8-6.1,8.3-6.6c14.9-0.9,17.1-2.2,17.1-8.3c0-3.5,1.8-6.6,4-6.6
		s5.3-3.1,6.6-7c3.5-9.7-16.2-28.1-31.2-28.5c-13.2-0.4,11.9-6.6,79-20.2c22-4.4,38.2-9.7,38.2-12.7c0-7-8.8-13.6-22.4-17.1
		c-8.8-2.2-11-4.8-9.7-11.4c1.8-7,4.8-7.9,18.4-5.7c14.9,2.2,17.1,1.3,26.8-12.7c6.1-8.8,15.4-16.7,22-17.6
		c52.3-10.5,58.8-15.8,41.3-34.2l-12.7-13.2l12.3,4.4c16.7,6.6,48.3,6.1,54.9-0.4c3.1-3.1,5.3-9.7,5.3-15.4
		c0-9.7,1.3-10.1,32.5-10.1c30.3,0,33.8-0.9,45.7-13.2c10.1-10.1,17.1-13.2,30.3-13.2c9.7,0,19.3-2.2,22-4.8c3.5-3.5,7-3.1,12.7,2.2
		c18,15.8,36,29,40,29c2.6,0,9.7-4.8,16.7-11.4c6.6-6.1,12.3-10.5,13.2-9.7c0.4,0.9,3.5,5.7,6.1,11.4c6.1,11.4,20.2,12.7,25.9,2.6
		c3.1-5.7,5.7-6.1,13.2-2.2c13.6,7,24.6,6.1,36-4c5.7-4.8,11.9-8.8,13.6-8.8c1.8,0,5.3-6.6,7.9-14.1c6.1-19.8,26.8-131.3,26.8-144.5
		c0-7.5-18-33.8-53.6-78.6c-29.4-37.3-66.3-85.6-82.6-107.6c-16.2-21.5-33.8-43.5-39.1-47.9c-13.6-12.3-79.9-113.3-98.8-151
		c-8.8-17.6-19.3-33.4-23.3-34.7c-9.2-3.5-18.9,9.7-18.9,25.5c0,22-31.2,34.2-44.8,18.4c-3.5-4.4-9.2-16.2-12.3-26.8
		c-3.1-10.5-20.2-44.8-37.3-76.8c-17.1-32.1-52.7-97.5-78.6-145.8c-103.2-191-123.4-230.5-210.3-408.4
		c-116.4-239.7-120.3-249.4-159-407.9c-20.6-84.3-29-109.8-65.4-198.5c-12.3-30.3-22.8-65-27.2-90c-4-22.8-7.9-42.6-8.8-43.9
		c-0.9-1.8-19.8-1.8-42.2-0.4c-40,2.2-41.7,2.6-71.6,22.8c-70.7,47.4-95.3,55.3-330.2,103.6l-36,7.5l-47.4,48.7
		c-26.3,26.8-61,68.5-78.2,92.6c-41.3,59.3-94.8,112-153.7,151.5c-26.3,17.6-61.5,44.8-77.3,59.7c-16.2,15.4-35.1,29-42.2,30.7
		c-24.2,5.3-27.7,7-27.7,12.7c0,7,10.5,20.2,107.1,136.1c71.1,85.2,73.3,88.3,71.1,104.5c-2.6,24.2-13.2,33.8-35.6,33.8
		c-22,0-19.3,2.6-148.4-146.2c-45.7-52.3-83.9-95.3-85.6-95.3s-28.5,7.9-60.2,17.6c-35.6,11-74.6,19.3-103.6,22.8
		c-43.9,4.8-47,4.8-65.9-4.4c-22-11-38.2-32.1-43.9-57.1c-3.1-13.6-1.3-26.3,7.5-58.4c18.4-68.9,18.4-71.1,0.4-84.7
		c-18-14.1-38.2-50.9-38.2-70.3c0-7.5,7-28.1,16.2-45.7c18.9-37.3,20.2-32.9-25-86.5c-15.8-18.9-32.5-38.6-37.3-44.8l-8.8-10.1
		l-26.3,13.6c-65.4,34.7-179.6,105.8-333.7,208.1c-175.6,116.8-192.8,126.9-217.4,130.9c-20.2,3.1-37.8,11.4-85.6,40.4
		c-40,24.6-54,28.1-71.1,18.4c-20.6-11.4-76-94.8-76-114.6c0-22,205.9-218.2,261.3-249.4c17.1-9.2,35.1-22,40.4-27.7
		c5.3-6.1,12.3-11,15.8-11c9.2,0,90.9-51.4,400.5-250.3c38.6-24.6,73.8-49.2,78.6-54.4c4.4-4.8,10.1-8.8,12.3-7.9
		c4.4,1.3,63.2-33.4,80.4-47c4.8-4,15.8-11,24.2-15.4c15.8-8.8,117.7-72,281-174.8c80.8-50.9,131.3-81.2,184.9-110.2
		c14.5-7.9,35.6-52.3,50.1-106.3c6.1-22.4,15.8-52.3,21.5-66.7c5.7-14.1,12.7-40,15.8-57.5c5.3-31.2,16.2-52.7,48.3-93.1
		c7-8.8,9.7-20.6,11.4-54.9c1.8-24.2,5.7-49.6,9.2-56.2c7-14.1,25.9-26.8,54.4-36c25-8.3,32.5-16.7,36.9-39.5
		c4-23.7,26.3-43.5,60.6-54.4c14.9-4.4,41.3-15.4,58-24.2c25.5-13.6,35.6-16.2,59.3-16.7c57.5-0.4,196.7,9.7,241.5,18.4
		c25.5,4.8,61,8.8,79.5,8.8c40,0,35.1,9.2,45.7-90l7.5-70.3l-22.8-133.9c-30.7-182.7-34.7-206.8-37.8-251.2l-3.1-38.6h1174.6h1175
		l-2.2,29.9c-3.5,56.6-14.9,140.1-32.5,241.1l-18,101.4l15.8,32.9c28.1,58,75.1,217.4,98.8,334.6c8.3,41.3,25.9,180.9,35.6,283.2
		c2.2,25.5,7.5,113.3,11,195s11.4,197.2,17.1,256.9c6.1,59.3,12.3,126.9,13.6,149.7c1.8,22.8,12.7,91.3,24.6,151.5
		c22,112,34.7,190.1,34.7,211.6c0,7,3.1,18,6.6,25c5.7,10.5,6.6,41.3,6.6,193.2c0,127.3-1.3,182.2-4.8,185.7
		c-2.6,2.6-7.5,33.4-11,68.1c-15.8,166.9-21.1,187.1-78.2,301.7c-30.3,60.6-48.7,104.1-67.6,162c-31.6,95.7-51.4,137.4-93.5,201.1
		c-18,26.8-50.9,76-72.9,109.8c-28.1,42.2-54.4,75.1-85.6,107.1c-25,25.5-48.3,50.1-52.7,54.9c-4,4.8-11.9,12.3-18,16.2
		c-13.2,9.2-52.3,60.2-77.3,101.4l-18,29.4l4.4,30.3c4,29,3.5,32.5-8.8,62.8c-7.5,17.6-13.2,34.3-13.2,36.9
		c0,2.2-4.8,14.1-10.1,26.3c-12.7,25.9-18.9,50.9-22.8,90c-3.1,28.5-2.6,29,7.9,32.1c11.9,2.6,38.2-7.9,38.2-15.8
		c0-5.7,48.3-0.9,54.4,5.3c7,7,20.6,5.3,27.7-3.1c4.8-6.1,6.6-6.6,8.8-1.8c1.3,3.1,6.1,9.7,11,14.5c4.4,4.4,7,10.1,5.7,12.3
		c-1.3,2.2,2.2,7,7.5,10.5c11.4,7,31.2,4.8,39.1-4.4c7.9-9.7,15.8-7.5,26.8,7c5.3,7,12.3,13.2,15.4,13.2c6.6,0,14.5,13.6,14.5,25.5
		c0,4.4,4,11.9,8.8,16.2c4.8,4.4,8.8,10.5,8.8,13.6c0,3.1,2.6,7.5,5.7,9.2c3.5,2.6,5.3,18,5.3,51.8c0,46.5,0.4,48.3,10.1,49.6
		c13.2,2.2,11.9,6.1-4.4,14.1c-19.8,9.2-19.8,14.9,0.4,29c22,15.8,22.8,21.1,3.1,18c-9.2-1.3-17.1-0.4-19.8,3.1
		c-6.1,7.5,0.9,53.1,9.7,63.2c4.4,4.8,5.7,10.1,3.5,13.6c-2.2,3.1-2.6,9.7-1.3,14.5c0.9,4.8-0.4,13.6-4,19.8
		c-4.8,9.2-4.8,11.4,0.9,14.5c5.3,3.1,6.1,13.2,5.7,50.5c-0.4,27.7-2.6,48.7-5.7,51.8c-2.6,2.6-4.8,8.3-4.8,12.3
		c0,4.4-7.9,13.2-17.1,20.2c-22,15.8-30.3,31.6-20.2,39.1c3.5,2.6,6.6,7,5.7,8.8c-0.4,2.2,1.8,18,4.8,35.1
		c12.7,66.3-1.8,184-27.7,225.3c-5.7,8.8-17.6,29.9-25.9,47c-8.3,16.7-22.4,44.3-31.2,61c-8.3,17.1-18,41.3-21.5,54.4
		c-4,15.4-7,21.1-8.8,16.2c-4-9.7-9.7-8.8-22,3.1c-5.7,5.3-18.9,15.4-29,22c-10.5,7.5-18,15.8-18,21.1c0,4.4-2.6,8.3-6.1,8.3
		c-3.5,0-7.9,4-9.2,8.8c-1.8,4.8-7.5,14.1-13.6,19.8c-5.7,5.7-10.5,13.6-10.5,17.6c0,4-5.7,11.9-12.7,18c-12.7,10.5-40,54-40,64.1
		c0,2.6-2.6,8.3-6.1,11.9c-7,7.9-10.5,30.7-5.7,38.2c1.8,3.1-0.4,6.1-5.3,7.5c-4.8,0.9-12.7,9.7-17.6,18.9
		c-12.7,23.7-55.3,84.7-71.1,101.4c-7,7.5-12.7,15.8-12.7,18c0,2.6-6.1,10.5-13.6,18c-7.5,7.5-12.7,16.2-11.9,18.9
		c1.3,3.1-2.2,7.5-7,10.1s-9.7,8.3-10.5,13.2c-3.1,15.4-9.2,20.2-18.4,14.1c-7-4-10.5-3.1-20.2,5.7c-6.6,6.1-14.5,17.1-17.6,24.6
		c-3.5,7.9-19.8,24.6-39.5,39.5c-18.4,14.5-38.2,30.3-43.9,35.6c-5.7,5.3-23.7,17.6-40.4,27.2c-25.5,14.9-38.6,21.1-87.4,40.4
		c-5.7,2.2-10.1,6.6-10.1,10.5c0,8.3-7,8.8-10.5,0c-3.5-9.2-43.5-8.8-53.1,0.4c-6.6,6.6-7.5,6.6-15.4-0.4c-11-10.1-22-5.7-22,8.8
		c0,13.2-2.2,13.6-21.1,2.2c-17.6-11-33.8-11.4-41.3-0.9c-3.1,4.4-9.2,9.2-13.2,11c-4.8,1.8-6.6,5.3-5.3,9.7
		c2.2,4.8,0.9,6.1-4.8,3.5c-5.3-1.8-10.1,0-13.6,5.3C-1586.9,11919.9-1587.7,11920.3-1587.7,11914.2z M-2491.4,10823.9
		c3.5-8.3,3.5-12.3-0.9-17.6c-7-8.8-17.6-0.9-17.6,13.2C-2509.8,10837.5-2498.9,10840.6-2491.4,10823.9z M-2495.3,10487.6
		c9.2-6.6,29.4-16.2,45.2-21.5c21.5-7.5,28.1-11.4,28.1-18c0-5.3-4-9.2-11.9-11c-7-1.3-15.8-3.5-19.8-4.8
		c-11-2.6-39.5,11.9-42.2,21.5c-1.3,5.7-4.4,7.5-10.5,5.3c-21.1-6.6-39.1,23.7-22.8,39.5C-2521.7,10506-2520.8,10506-2495.3,10487.6
		z M-4016.4,8192c7.5-4.8,2.6-27.7-8.3-37.8c-7.9-7-9.2-7-26.8,2.6c-10.1,5.7-19.3,12.7-20.2,15.8c-2.2,6.1,27.2,22.8,40.4,22.8
		C-4026.5,8195.9-4019.9,8194.2-4016.4,8192z M-2663.5,8040c0-8.3-7-11.9-17.6-8.8c-9.7,3.1-11.4,11-3.5,18.9
		C-2678.5,8056.3-2663.5,8049.3-2663.5,8040z"/>
</g>
</svg>
