<?xml version="1.0" standalone="no"?>
<!DOCTYPE svg PUBLIC "-//W3C//DTD SVG 20010904//EN"
 "http://www.w3.org/TR/2001/REC-SVG-20010904/DTD/svg10.dtd">
<svg version="1.0" xmlns="http://www.w3.org/2000/svg"
 width="1280.000000pt" height="1065.000000pt" viewBox="0 0 1280.000000 1065.000000"
 preserveAspectRatio="xMidYMid meet">
<g transform="translate(0.000000,1065.000000) scale(0.100000,-0.100000)"
fill="#000000" stroke="none">
<path d="M8350 10629 c-417 -72 -743 -303 -929 -659 -154 -295 -185 -644 -85
-962 76 -240 240 -469 449 -626 110 -82 290 -167 429 -202 65 -17 126 -30 135
-30 11 0 113 194 359 685 188 377 347 685 354 685 21 0 603 -221 616 -235 12
-10 8 -37 -22 -161 -29 -117 -88 -329 -132 -474 -2 -8 9 1 26 20 43 50 156
282 180 370 86 313 59 611 -79 895 -186 380 -513 620 -948 694 -144 25 -211
25 -353 0z"/>
<path d="M10400 9975 l0 -135 863 2 862 3 3 133 3 132 -866 0 -865 0 0 -135z"/>
<path d="M10327 9783 c-4 -3 -7 -37 -7 -75 l0 -68 1118 2 1117 3 3 64 c2 45
-1 67 -10 72 -15 10 -2212 12 -2221 2z"/>
<path d="M10467 9583 c-4 -3 -7 -60 -7 -125 l0 -118 910 0 911 0 -3 123 -3
122 -901 3 c-495 1 -904 -1 -907 -5z"/>
<path d="M8560 8340 c-294 -588 -540 -1070 -546 -1070 -7 0 -21 28 -31 63 -10
34 -82 273 -158 531 l-140 470 -107 113 c-118 125 -199 240 -254 359 -37 79
-134 361 -134 388 0 8 -4 18 -10 21 -5 3 -87 -50 -182 -118 -95 -68 -411 -287
-703 -487 -1038 -711 -1495 -1042 -2026 -1466 -1148 -916 -1783 -1673 -1894
-2255 -22 -117 -20 -287 5 -385 27 -106 88 -227 160 -319 62 -77 81 -91 172
-124 427 -156 1414 -264 2837 -311 162 -5 298 -13 303 -18 4 -4 -8 -66 -26
-137 -19 -72 -118 -458 -220 -860 -243 -953 -424 -1666 -536 -2104 -50 -195
-87 -357 -83 -361 10 -9 1016 -260 1021 -255 6 6 66 204 177 590 406 1408 660
2554 725 3282 16 178 8 527 -14 608 -41 149 -106 222 -271 304 -328 163 -1025
283 -1915 331 -248 14 -272 17 -268 35 2 7 386 363 853 792 468 428 1023 937
1235 1131 212 193 392 352 400 352 9 0 32 -33 55 -77 107 -205 241 -397 375
-536 309 -323 611 -368 951 -145 59 39 133 101 199 168 189 191 330 402 510
765 141 286 242 536 361 895 78 235 193 635 201 698 3 22 -12 29 -222 108
-124 47 -234 87 -245 90 -18 4 -82 -119 -555 -1066z"/>
<path d="M10320 9225 l0 -65 1030 0 1030 0 0 65 0 65 -1030 0 -1030 0 0 -65z"/>
<path d="M10374 9085 c-7 -19 -14 -39 -14 -44 0 -13 14 -15 495 -61 352 -35
918 -91 1469 -145 l149 -15 109 61 c59 33 110 64 113 69 8 13 -74 81 -130 106
-31 15 -87 28 -136 34 -129 14 -916 30 -1507 30 l-533 0 -15 -35z"/>
<path d="M10330 8881 l0 -101 1037 0 c570 0 1034 2 1031 5 -3 3 -141 17 -306
30 -165 14 -412 36 -549 50 -655 67 -1036 105 -1120 111 l-93 7 0 -102z"/>
<path d="M10510 8665 l0 -65 1033 2 1032 3 3 39 c2 22 1 50 -2 63 l-6 23
-1030 0 -1030 0 0 -65z"/>
<path d="M10400 8445 l0 -105 943 2 942 3 0 100 0 100 -942 3 -943 2 0 -105z"/>
<path d="M10530 8185 l0 -95 945 0 945 0 0 95 0 95 -945 0 -945 0 0 -95z"/>
<path d="M10440 8015 l0 -25 835 0 835 0 0 25 0 25 -835 0 -835 0 0 -25z"/>
<path d="M11119 7929 c-523 -10 -698 -21 -766 -47 -61 -23 -153 -88 -153 -107
0 -7 49 -41 110 -75 l109 -61 523 51 c812 79 891 87 1238 120 179 17 331 33
339 36 9 3 12 14 7 36 -12 61 15 58 -515 56 -267 -1 -669 -5 -892 -9z"/>
<path d="M12075 7750 c-203 -21 -606 -61 -895 -89 -289 -28 -543 -55 -565 -61
-22 -5 -52 -11 -67 -15 -104 -21 38 -25 982 -25 l1010 0 0 115 0 115 -47 -1
c-27 -1 -214 -18 -418 -39z"/>
<path d="M10290 7390 l0 -120 1018 2 1017 3 0 115 0 115 -1017 3 -1018 2 0
-120z"/>
<path d="M175 7318 c-13 -38 -163 -653 -160 -656 2 -2 73 -21 157 -41 84 -20
165 -45 180 -55 15 -10 41 -46 58 -80 43 -87 53 -182 40 -386 -9 -143 -71
-800 -85 -900 -31 -221 -65 -760 -65 -1035 0 -479 51 -733 185 -921 106 -149
219 -221 424 -274 215 -55 408 -71 911 -79 l435 -6 7 -90 c3 -49 11 -299 17
-555 7 -256 16 -638 22 -849 l10 -384 -40 -41 c-22 -23 -245 -230 -495 -461
-250 -231 -455 -423 -455 -427 -1 -5 212 -8 473 -8 l474 0 148 158 c81 86 155
158 163 160 9 1 83 -64 176 -158 l160 -160 492 0 c271 0 493 3 493 8 0 4 -220
228 -490 497 l-490 490 0 145 c0 80 5 327 10 550 6 223 14 573 19 779 5 205
13 377 18 382 4 4 333 34 730 66 397 33 726 62 729 66 6 6 -25 380 -53 635
l-6 52 -39 0 c-21 0 -398 -29 -836 -64 -945 -77 -1230 -91 -1706 -83 -359 6
-493 15 -650 45 l-89 17 -13 63 c-24 117 -34 250 -34 447 0 279 21 558 104
1367 61 589 68 812 31 993 -20 97 -74 236 -127 329 -71 121 -259 291 -403 363
-36 18 -384 113 -414 113 -6 0 -14 -6 -16 -12z"/>
<path d="M10447 7213 c-4 -3 -7 -80 -7 -170 l0 -163 1020 0 1020 0 0 170 0
170 -1013 0 c-558 0 -1017 -3 -1020 -7z"/>
<path d="M10544 6807 c-2 -7 -3 -82 -2 -167 l3 -155 890 0 890 0 3 168 2 167
-890 0 c-719 0 -892 -2 -896 -13z"/>
<path d="M6325 6397 c-3 -6 -4 -163 -3 -347 l3 -335 2181 -3 c1729 -2 2184 -5
2192 -15 18 -23 260 -822 392 -1297 274 -990 472 -1873 564 -2520 42 -299 50
-398 50 -675 1 -273 -7 -363 -35 -418 -9 -16 -95 -17 -1594 -17 l-1585 0 0
-350 0 -350 1653 0 c1602 0 1656 1 1729 19 137 35 236 100 325 212 70 88 106
158 142 271 116 368 99 937 -55 1813 -146 830 -439 1991 -788 3125 -37 121
-50 179 -43 188 7 9 155 12 678 12 l669 0 0 350 0 350 -3235 0 c-2589 0 -3237
-3 -3240 -13z"/>
</g>
</svg>
