<?xml version="1.0" encoding="utf-8"?>
<!-- Generator: Adobe Illustrator 16.0.0, SVG Export Plug-In . SVG Version: 6.00 Build 0)  -->
<!DOCTYPE svg PUBLIC "-//W3C//DTD SVG 1.1//EN" "http://www.w3.org/Graphics/SVG/1.1/DTD/svg11.dtd">
<svg version="1.1" id="Calque_1" xmlns="http://www.w3.org/2000/svg" xmlns:xlink="http://www.w3.org/1999/xlink" x="0px" y="0px"
	 width="512px" height="512px" viewBox="0 0 512 512" enable-background="new 0 0 512 512" xml:space="preserve">
<path fill="#003060" d="M507.105,143.203L345.199,81.477c-3.926-1.496-8.32,0.473-9.816,4.395c-1.496,3.926,0.473,8.32,4.398,9.816
	l143.27,54.621l-99.18,37.816l-124.734-56.477c-3.828-1.734-8.332-0.035-10.062,3.789c-1.734,3.828-0.035,8.332,3.789,10.066
	l110.988,50.254L256,236.875L28.949,150.309L256,63.742l55.953,21.336c3.918,1.492,8.316-0.473,9.816-4.398
	c1.496-3.922-0.473-8.316-4.398-9.812L258.711,48.5c-1.746-0.664-3.676-0.668-5.422,0L4.895,143.203
	C1.949,144.328,0,147.156,0,150.309v34.727c0,3.152,1.949,5.98,4.895,7.105l77.566,29.57v26.352c0,4.199,3.402,7.605,7.602,7.605
	c4.203,0,7.605-3.406,7.605-7.605v-20.551l155.621,59.332c0.875,0.332,1.793,0.5,2.711,0.5s1.836-0.168,2.711-0.5l117.305-44.723
	v120.344c-36.828,19.332-78.125,29.691-120.016,29.691c-57.172,0-113.25-19.273-158.332-54.348V278.48
	c0-4.199-3.402-7.605-7.605-7.605c-4.199,0-7.602,3.406-7.602,7.605v63.012c0,2.309,1.047,4.492,2.848,5.934
	c48.246,38.652,108.867,59.938,170.691,59.938c41.695,0,82.836-9.695,120.016-27.855v30.777
	c-12.254,3.348-21.289,14.57-21.289,27.871c0,15.93,12.961,28.895,28.891,28.895c15.934,0,28.895-12.965,28.895-28.895
	c0-13.301-9.035-24.523-21.289-27.871v-38.809c12.395-7.051,24.27-15.074,35.473-24.051c1.801-1.441,2.852-3.625,2.852-5.934
	V221.707l77.559-29.57c2.945-1.121,4.895-3.949,4.895-7.105v-34.723C512,147.156,510.051,144.328,507.105,143.203z M397.305,438.156
	c0,7.543-6.141,13.684-13.688,13.684c-7.543,0-13.684-6.141-13.684-13.684c0-7.547,6.141-13.688,13.684-13.688
	C391.164,424.469,397.305,430.609,397.305,438.156z M15.207,161.348l233.188,88.906v18.445L15.207,179.793V161.348z
	 M263.605,268.699v-18.445l112.41-42.859v18.449L263.605,268.699z M414.336,337.805c-7.418,5.773-15.141,11.109-23.113,16.008
	V236.32l23.113-8.812V337.805z M391.223,220.043v-18.445l105.57-40.25v18.445L391.223,220.043z"/>
</svg>
